<svg width="1439" height="750" viewBox="0 0 1439 750" fill="none" xmlns="http://www.w3.org/2000/svg">
<g clip-path="url(#clip0_59_899)">
<path d="M1179.52 124.655C1137.97 171.88 1049.8 173.693 1003.55 133.005C957.303 92.316 952.974 9.1255 994.522 -38.0997C1036.07 -85.325 1123.49 -96.5849 1169.74 -55.8962C1215.99 -15.2075 1221.07 77.4299 1179.52 124.655Z" stroke="#D3A4A2" stroke-width="15"/>
<path d="M139.1 395.4C139.1 453.1 77.5 513.1 20.2 513.1C-37.2 513.1 -90.4 453.1 -90.4 395.4C-90.4 337.7 -37.2 282.3 20.2 282.3C77.5 282.3 139.1 337.7 139.1 395.4Z" stroke="#D3A4A2" stroke-width="15"/>
<path d="M1423.9 721C1423.9 760.6 1386.9 799.1 1349.4 799.1C1311.9 799.1 1273.9 760.6 1273.9 721C1273.9 681.3 1311.9 640.7 1349.4 640.7C1386.9 640.7 1423.9 681.3 1423.9 721Z" stroke="#D3A4A2" stroke-width="15"/>
</g>
<defs>
<clipPath id="clip0_59_899">
<rect width="1440" height="750" fill="white" transform="translate(-1)"/>
</clipPath>
</defs>
</svg>
