<svg width="48" height="52" viewBox="0 0 48 52" fill="none" xmlns="http://www.w3.org/2000/svg">
<path d="M24 0.0045166C17.6359 0.0045166 11.5325 2.59373 7.03237 7.20254C2.53228 11.8114 0.00415039 18.0622 0.00415039 24.5801H47.9958C47.9958 18.0622 45.4677 11.8114 40.9676 7.20254C36.4675 2.59373 30.3641 0.0045166 24 0.0045166Z" fill="#E9D8A6"/>
<path d="M45.3689 27.4245C45.3689 33.2288 43.1176 38.7954 39.1101 42.8997C35.1027 47.004 29.6674 49.3097 24 49.3097C18.3326 49.3097 12.8973 47.004 8.88986 42.8997C4.8824 38.7954 2.63105 33.2288 2.63105 27.4245H0.00415039C0.00415039 33.9423 2.53228 40.1932 7.03237 44.802C11.5325 49.4109 17.6359 52.0001 24 52.0001C30.3641 52.0001 36.4675 49.4109 40.9676 44.802C45.4677 40.1932 47.9958 33.9423 47.9958 27.4245H45.3689Z" fill="#E9D8A6"/>
<path d="M24 45.8494C28.7695 45.8434 33.342 43.9003 36.7146 40.4462C40.0871 36.9922 41.9844 32.3092 41.9902 27.4245H39.3634C39.3634 31.5976 37.7447 35.5997 34.8635 38.5505C31.9823 41.5013 28.0746 43.159 24 43.159C19.9254 43.159 16.0177 41.5013 13.1365 38.5505C10.2553 35.5997 8.63666 31.5976 8.63666 27.4245H6.00977C6.01562 32.3092 7.91289 36.9922 11.2854 40.4462C14.658 43.9003 19.2305 45.8434 24 45.8494Z" fill="#E9D8A6"/>
</svg>
