<svg width="52" height="42" viewBox="0 0 52 42" fill="none" xmlns="http://www.w3.org/2000/svg">
<path d="M47.2727 1.23529C44.6491 0.370588 41.7655 0 39 0C34.3909 0 29.4273 0.988235 26 3.70588C22.5727 0.988235 17.6091 0 13 0C8.39091 0 3.42727 0.988235 0 3.70588V39.9C0 40.5176 0.590909 41.1353 1.18182 41.1353C1.41818 41.1353 1.53636 41.0118 1.77273 41.0118C4.96364 39.4059 9.57273 38.2941 13 38.2941C17.6091 38.2941 22.5727 39.2824 26 42C29.1909 39.9 34.9818 38.2941 39 38.2941C42.9 38.2941 46.9182 39.0353 50.2273 40.8882C50.4636 41.0118 50.5818 41.0118 50.8182 41.0118C51.4091 41.0118 52 40.3941 52 39.7765V3.70588C50.5818 2.59412 49.0455 1.85294 47.2727 1.23529ZM4.72727 34.5882V6.17647C7.32727 5.31176 10.1636 4.94118 13 4.94118C16.1673 4.94118 20.3982 5.95412 23.6364 7.38706V35.7988C20.3982 34.3659 16.1673 33.3529 13 33.3529C10.1636 33.3529 7.32727 33.7235 4.72727 34.5882ZM47.2727 34.5882C44.6727 33.7235 41.8364 33.3529 39 33.3529C35.8327 33.3529 31.6018 34.3659 28.3636 35.7988V7.38706C31.6018 5.92941 35.8327 4.94118 39 4.94118C41.8364 4.94118 44.6727 5.31176 47.2727 6.17647V34.5882Z" fill="#E9D8A6"/>
<path d="M38.5833 14.46C40.49 14.46 42.3317 14.6676 44 15.0597V11.5536C42.2883 11.2076 40.4467 11 38.5833 11C35.81 11 33.2533 11.3691 31 12.0841V15.7056C33.145 14.8982 35.7233 14.46 38.5833 14.46ZM38.5833 20.5957C40.49 20.5957 42.3317 20.8033 44 21.1954V17.6893C42.2883 17.3433 40.4467 17.1357 38.5833 17.1357C35.81 17.1357 33.2533 17.5047 31 18.2198V21.8412C33.145 21.057 35.7233 20.5957 38.5833 20.5957ZM38.5833 26.7544C40.49 26.7544 42.3317 26.962 44 27.3541V23.848C42.2883 23.502 40.4467 23.2944 38.5833 23.2944C35.81 23.2944 33.2533 23.6635 31 24.3786V28C33.145 27.1927 35.7233 26.7544 38.5833 26.7544Z" fill="#E9D8A6"/>
<path d="M10.7654 20.5564L13.2815 17.9067L7.04009 11.3433C6.37403 12.0467 6 12.9996 6 13.993C6 14.9864 6.37403 15.9393 7.04009 16.6427L10.7654 20.5564ZM21.4788 17.5697C23.177 15.7813 23.506 13.2159 22.199 11.8395C20.9009 10.4725 18.4648 10.8096 16.7578 12.5979C15.3442 14.0866 14.8996 16.0997 15.5309 17.5322L6.85338 26.6705L8.10699 27.9906L14.2328 21.5583L20.3497 28L21.6033 26.6798L15.4864 20.2381L16.7934 18.8618C18.1537 19.5265 20.0652 19.0584 21.4788 17.5697Z" fill="#E9D8A6"/>
</svg>
