<svg width="48" height="53" viewBox="0 0 48 53" fill="none" xmlns="http://www.w3.org/2000/svg">
<path d="M47.4222 13.3087C47.4222 13.2864 47.4222 13.2864 47.3999 13.2641C46.9971 12.5774 46.4226 12.0082 45.7333 11.6131L26.1777 0.569137C25.5121 0.195931 24.7624 0 24 0C23.2376 0 22.4878 0.195931 21.8222 0.569137L2.26667 11.6131C1.57124 12.0101 0.995432 12.5882 0.600001 13.2864H0.577779C0.576376 13.3036 0.568415 13.3196 0.555557 13.331C0.190522 13.9934 -0.000659099 14.7382 1.70722e-06 15.4952V37.4939C0.00200135 38.2874 0.212655 39.0663 0.610664 39.7519C1.00867 40.4375 1.57993 41.0054 2.26667 41.3983L21.8222 52.4422C22.4375 52.7794 23.1218 52.9703 23.8222 53H24.2222C24.9067 52.9592 25.5741 52.7688 26.1777 52.4422L45.7333 41.3983C46.42 41.0054 46.9913 40.4375 47.3893 39.7519C47.7873 39.0663 47.9979 38.2874 47.9999 37.4939V15.4952C48.0038 14.7278 47.8044 13.9732 47.4222 13.3087ZM24 5.47756L39.9111 14.4689L34.9111 17.3024L18.8222 8.4003L24 5.47756ZM24.2 23.4156L8.13333 14.4243L13.3555 11.4792L29.4666 20.4259L24.2 23.4156ZM5.33333 18.998L21.5333 28.0563L21.3778 46.039L5.33333 36.9807V18.998ZM26.7111 45.9943L26.8666 28.0563L32.2222 24.9997V31.9607C32.2222 32.6708 32.5031 33.3518 33.0032 33.8539C33.5033 34.356 34.1816 34.638 34.8889 34.638C35.5961 34.638 36.2744 34.356 36.7745 33.8539C37.2746 33.3518 37.5555 32.6708 37.5555 31.9607V21.9654L42.6666 19.0426V36.9807L26.7111 45.9943Z" fill="#E9D8A6"/>
</svg>
