<svg width="1440" height="743" viewBox="0 0 1440 743" fill="none" xmlns="http://www.w3.org/2000/svg">
<path d="M0 414L80 389.42C160 364.841 320 315.681 480 300.933C640 286.185 800 305.849 960 310.765C1120 315.681 1280 305.849 1360 300.933L1440 296.017V38.203L1360 31.6484C1280 25.0938 1120 11.9846 960 5.43001C800 -1.12459 640 -1.12459 480 2.15271C320 5.43001 160 11.9846 80 15.2619L0 18.5392V414Z" fill="#D3A4A2"/>
<path d="M0 743H80C160 743 320 743 480 743C640 743 800 743 960 743C1120 743 1280 743 1360 743H1440V253.479L1360 258.452C1280 263.424 1120 273.369 960 268.397C800 263.424 640 243.534 480 258.452C320 273.369 160 323.095 80 347.958L0 372.821V743Z" fill="#A85656"/>
</svg>
