<svg width="1440" height="763" viewBox="0 0 1440 763" fill="none" xmlns="http://www.w3.org/2000/svg">
<path d="M0 296L80 274.751C160 253.501 320 211.003 480 195.345C640 179.688 800 190.872 960 205.411C1120 219.95 1280 237.844 1360 246.791L1440 255.738V0H1360C1280 0 1120 0 960 0C800 0 640 0 480 0C320 0 160 0 80 0H0V296Z" fill="#A85656"/>
<path d="M0 890L80 864.022C160 838.045 320 786.089 480 780.894C640 775.698 800 817.263 960 822.458C1120 827.654 1280 796.48 1360 780.894L1440 765.307V231.899L1360 211.117C1280 190.335 1120 148.771 960 115C800 81.2288 640 55.2511 480 91.6199C320 127.989 80 246.142 0 295.5V325.419V890Z" fill="#D3A4A2"/>
</svg>
