<svg width="1440" height="641" viewBox="0 0 1440 641" fill="none" xmlns="http://www.w3.org/2000/svg">
<path d="M0 142.088L40 148.498C80 154.908 160 167.728 240 180.548C320 193.368 400 206.188 480 207.257C560 208.325 640 197.642 720 186.958C800 176.275 880 165.592 960 157.045C1040 148.498 1120 142.088 1200 150.635C1280 159.182 1360 182.685 1400 194.437L1440 206.188V0H1400C1360 0 1280 0 1200 0C1120 0 1040 0 960 0C880 0 800 0 720 0C640 0 560 0 480 0C400 0 320 0 240 0C160 0 80 0 40 0H0V142.088Z" fill="#D3A4A2"/>
<path d="M0 528.981L40 524.984C80 520.987 160 512.993 240 526.982C320 540.972 400 576.944 480 592.932C560 608.92 640 604.923 720 594.931C800 584.938 880 568.95 960 560.956C1040 552.962 1120 552.962 1200 548.965C1280 544.968 1360 536.975 1400 532.978L1440 528.981V201.23L1400 179.246C1360 157.263 1280 113.297 1200 97.3087C1120 81.3209 1040 93.3118 960 109.3C880 125.287 800 145.272 720 165.257C640 185.242 560 205.227 480 203.228C400 201.23 320 177.248 240 153.266C160 129.284 80 105.303 40 93.3118L0 81.3209V528.981Z" fill="#A85656"/>
<path d="M0 641H40C80 641 160 641 240 641C320 641 400 641 480 641C560 641 640 641 720 641C800 641 880 641 960 641C1040 641 1120 641 1200 641C1280 641 1360 641 1400 641H1440V417.035L1400 418.841C1360 420.647 1280 424.259 1200 426.066C1120 427.872 1040 427.872 960 431.484C880 435.096 800 442.321 720 446.837C640 451.352 560 453.158 480 445.933C400 438.709 320 422.453 240 416.132C160 409.81 80 413.422 40 415.229L0 417.035V641Z" fill="#A85656"/>
</svg>
