<svg width="1440" height="750" viewBox="0 0 1440 750" fill="none" xmlns="http://www.w3.org/2000/svg">
<g clip-path="url(#clip0_59_872)">
<path d="M0 273.493L48 279.144C96 284.795 192 296.096 288 307.397C384 318.699 480 330 576 330C672 330 768 318.699 864 299.034C960 279.596 1056 251.568 1152 237.781C1248 223.767 1344 223.767 1392 223.767H1440V0H1392C1344 0 1248 0 1152 0C1056 0 960 0 864 0C768 0 672 0 576 0C480 0 384 0 288 0C192 0 96 0 48 0H0V273.493Z" fill="#A85656"/>
<path d="M0 601L48 604.8C96 608.7 192 616.3 288 611.3C384 606.3 480 588.7 576 578.7C672 568.7 768 566.3 864 572.7C960 579 1056 594 1152 602.7C1248 611.3 1344 613.7 1392 614.8L1440 616V292L1392 313.2C1344 334.3 1248 376.7 1152 390.3C1056 404 960 389 864 374C768 359 672 344 576 337.8C480 331.7 384 334.3 288 331.8C192 329.3 96 321.7 48 317.8L0 314V601Z" fill="#D3A4A2"/>
<path d="M0 751H48C96 751 192 751 288 751C384 751 480 751 576 751C672 751 768 751 864 751C960 751 1056 751 1152 751C1248 751 1344 751 1392 751H1440V614L1392 612.8C1344 611.7 1248 609.3 1152 600.7C1056 592 960 577 864 570.7C768 564.3 672 566.7 576 576.7C480 586.7 384 604.3 288 609.3C192 614.3 96 606.7 48 602.8L0 599V751Z" fill="#D3A4A2"/>
<path d="M0 520.455L40 516.826C80 513.197 160 505.939 240 518.641C320 531.343 400 564.004 480 578.52C560 593.037 640 589.408 720 580.335C800 571.262 880 556.746 960 549.488C1040 542.23 1120 542.23 1200 538.601C1280 534.972 1360 527.714 1400 524.084L1440 520.455V222.872L1400 202.912C1360 182.952 1280 143.033 1200 128.516C1120 114 1040 124.887 960 139.403C880 153.92 800 172.065 720 190.21C640 208.356 560 226.501 480 224.687C400 222.872 320 201.098 240 179.323C160 157.549 80 135.774 40 124.887L0 114V520.455Z" fill="#D3A4A2"/>
</g>
<defs>
<clipPath id="clip0_59_872">
<rect width="1440" height="750" fill="white"/>
</clipPath>
</defs>
</svg>
