<svg width="1440" height="739" viewBox="0 0 1440 739" fill="none" xmlns="http://www.w3.org/2000/svg">
<path d="M0 343L80 329.5C160 316 320 289 480 284.5C640 280 800 298 960 332.5C1120 367 1280 418 1360 443.5L1440 469V0H1360C1280 0 1120 0 960 0C800 0 640 0 480 0C320 0 160 0 80 0H0V343Z" fill="#C49694"/>
<path d="M0 739L80 721C160 703 320 667 480 664C640 661 800 691 960 704.5C1120 718 1280 715 1360 713.5L1440 712V467L1360 441.5C1280 416 1120 365 960 330.5C800 296 640 278 480 282.5C320 287 160 314 80 327.5L0 341V739Z" fill="#A85656"/>
</svg>
