<svg width="45" height="45" viewBox="0 0 45 45" fill="none" xmlns="http://www.w3.org/2000/svg">
<path d="M15.0514 36.2339C15.0514 36.42 14.8427 36.5689 14.5796 36.5689C14.2802 36.5968 14.0716 36.4479 14.0716 36.2339C14.0716 36.0478 14.2802 35.8989 14.5433 35.8989C14.8155 35.871 15.0514 36.0199 15.0514 36.2339ZM12.2298 35.8152C12.1663 36.0013 12.3478 36.2153 12.62 36.2712C12.8558 36.3642 13.128 36.2712 13.1825 36.085C13.2369 35.8989 13.0645 35.6849 12.7923 35.6012C12.5565 35.5361 12.2933 35.6291 12.2298 35.8152ZM16.2399 35.657C15.9768 35.7222 15.7954 35.8989 15.8226 36.113C15.8498 36.2991 16.0857 36.42 16.3579 36.3549C16.621 36.2898 16.8024 36.113 16.7752 35.9269C16.748 35.7501 16.503 35.6291 16.2399 35.657ZM22.2097 0C9.62601 0 0 9.79824 0 22.7044C0 33.0237 6.33266 41.8542 15.378 44.9621C16.5393 45.1761 16.9476 44.441 16.9476 43.8362C16.9476 43.2593 16.9204 40.0769 16.9204 38.1229C16.9204 38.1229 10.5696 39.5186 9.23589 35.3499C9.23589 35.3499 8.20161 32.6422 6.71371 31.9443C6.71371 31.9443 4.63609 30.4834 6.85887 30.5113C6.85887 30.5113 9.11794 30.6974 10.3609 32.912C12.3478 36.5038 15.6774 35.4709 16.9748 34.8568C17.1835 33.368 17.7732 32.3351 18.4264 31.721C13.3548 31.1441 8.2379 30.3903 8.2379 21.4389C8.2379 18.88 8.92742 17.5959 10.379 15.9582C10.1431 15.3534 9.37198 12.8596 10.6149 9.64005C12.5111 9.03522 16.875 12.1524 16.875 12.1524C18.6895 11.6313 20.6401 11.3615 22.5726 11.3615C24.505 11.3615 26.4556 11.6313 28.2702 12.1524C28.2702 12.1524 32.6341 9.02592 34.5302 9.64005C35.7732 12.8689 35.002 15.3534 34.7661 15.9582C36.2177 17.6052 37.1069 18.8893 37.1069 21.4389C37.1069 30.4183 31.7631 31.1348 26.6915 31.721C27.5262 32.4561 28.2339 33.8518 28.2339 36.0385C28.2339 39.1743 28.2067 43.0545 28.2067 43.8176C28.2067 44.4224 28.624 45.1575 29.7762 44.9435C38.8488 41.8542 45 33.0237 45 22.7044C45 9.79824 34.7933 0 22.2097 0ZM8.81855 32.0932C8.7006 32.1862 8.72782 32.4002 8.88206 32.577C9.02722 32.7259 9.23589 32.7911 9.35383 32.6701C9.47177 32.577 9.44456 32.363 9.29032 32.1862C9.14516 32.0373 8.93649 31.9722 8.81855 32.0932ZM7.83871 31.3395C7.7752 31.4604 7.86593 31.6093 8.04738 31.7024C8.19254 31.7954 8.37399 31.7675 8.4375 31.6372C8.50101 31.5163 8.41028 31.3674 8.22883 31.2743C8.04738 31.2185 7.90222 31.2464 7.83871 31.3395ZM10.7782 34.6521C10.6331 34.773 10.6875 35.0522 10.8962 35.229C11.1048 35.443 11.3679 35.4709 11.4859 35.322C11.6038 35.2011 11.5494 34.9219 11.3679 34.7451C11.1683 34.5311 10.8962 34.5032 10.7782 34.6521ZM9.74395 33.2842C9.59879 33.3773 9.59879 33.6192 9.74395 33.8332C9.88911 34.0472 10.1341 34.1403 10.252 34.0472C10.3972 33.9263 10.3972 33.6843 10.252 33.4703C10.125 33.2563 9.88911 33.1633 9.74395 33.2842Z" fill="black"/>
</svg>
