<svg width="101" height="99" viewBox="0 0 101 99" fill="none" xmlns="http://www.w3.org/2000/svg">
<path d="M60.3228 68.0598H7.0968L7.08615 10.9879L47.6585 40.9191C48.2518 41.3565 48.9561 41.5908 49.6776 41.5908C50.399 41.5908 51.1033 41.3565 51.6966 40.9191L92.2584 11.003V45.3732H99.3552V7.5622C99.3523 5.5575 98.6037 3.63577 97.2734 2.21823C95.9431 0.800693 94.1397 0.0030003 92.2584 0H7.0968C5.21519 0.00200201 3.41118 0.799376 2.08068 2.21713C0.750178 3.63488 0.00187879 5.5572 0 7.5622V68.0598C0.00281565 70.0645 0.751416 71.9863 2.08171 73.4038C3.41201 74.8213 5.21547 75.619 7.0968 75.622H60.3228V68.0598ZM84.4483 7.5622L49.6776 33.2132L14.9068 7.5622H84.4483Z" fill="white"/>
<path d="M86.2818 98.9643C94.1207 98.9643 100.475 92.1928 100.475 83.8399C100.475 75.4869 94.1207 68.7155 86.2818 68.7155C78.4428 68.7155 72.0882 75.4869 72.0882 83.8399C72.0882 92.1928 78.4428 98.9643 86.2818 98.9643Z" fill="white"/>
</svg>
