<svg width="85" height="98" viewBox="0 0 85 98" fill="none" xmlns="http://www.w3.org/2000/svg">
<path d="M42.5001 56C38.6793 56 34.9444 54.9737 31.7675 53.0507C28.5907 51.1278 26.1146 48.3947 24.6525 45.197C23.1903 41.9993 22.8078 38.4806 23.5531 35.0859C24.2985 31.6913 26.1384 28.5731 28.8401 26.1256C31.5418 23.6782 34.984 22.0115 38.7313 21.3363C42.4787 20.661 46.3629 21.0076 49.8928 22.3321C53.4228 23.6566 56.4398 25.8997 58.5626 28.7775C60.6853 31.6554 61.8182 35.0388 61.8182 38.5C61.8121 43.1396 59.7748 47.5876 56.1533 50.8682C52.5318 54.1489 47.6217 55.9945 42.5001 56V56ZM42.5001 28C40.2076 28 37.9667 28.6158 36.0605 29.7696C34.1544 30.9233 32.6688 32.5632 31.7915 34.4818C30.9142 36.4005 30.6847 38.5117 31.1319 40.5485C31.5792 42.5853 32.6831 44.4562 34.3041 45.9246C35.9251 47.3931 37.9904 48.3931 40.2388 48.7983C42.4872 49.2034 44.8178 48.9955 46.9357 48.2007C49.0537 47.406 50.864 46.0602 52.1376 44.3335C53.4112 42.6068 54.091 40.5767 54.091 38.5C54.0879 35.7161 52.8658 33.047 50.6927 31.0785C48.5197 29.1099 45.5733 28.0028 42.5001 28V28Z" fill="white"/>
<path d="M42.5 98L9.90639 63.1785C9.4535 62.6556 9.0053 62.1295 8.56185 61.6C2.99428 54.9562 -0.01345 46.8413 4.52156e-05 38.5C4.52156e-05 28.2892 4.4777 18.4965 12.448 11.2764C20.4183 4.05624 31.2283 0 42.5 0C53.7716 0 64.5817 4.05624 72.5519 11.2764C80.5222 18.4965 84.9999 28.2892 84.9999 38.5C85.0134 46.8375 82.007 54.9488 76.4419 61.5895L76.4381 61.6C76.4381 61.6 75.279 62.979 75.1051 63.1645L42.5 98ZM14.7282 57.3825C14.7359 57.3825 15.6323 58.4605 15.8371 58.6915L42.5 87.178L69.1976 58.653C69.3676 58.4605 70.2717 57.3755 70.2756 57.372C74.8237 51.9439 77.2816 45.3146 77.2726 38.5C77.2726 30.1457 73.6091 22.1335 67.0879 16.2261C60.5668 10.3187 51.7222 7 42.5 7C33.2777 7 24.4331 10.3187 17.912 16.2261C11.3908 22.1335 7.7273 30.1457 7.7273 38.5C7.7192 45.3188 10.1798 51.9519 14.7321 57.3825H14.7282Z" fill="white"/>
</svg>
