<svg width="101" height="98" viewBox="0 0 101 98" fill="none" xmlns="http://www.w3.org/2000/svg">
<path d="M81.2332 39.539H73.5578C73.5548 37.0305 72.3408 34.6255 70.1824 32.8517C68.024 31.0779 65.0974 30.0803 62.0449 30.0778V23.7704C67.132 23.7754 72.0091 25.4383 75.6063 28.3944C79.2035 31.3505 81.2271 35.3584 81.2332 39.539V39.539Z" fill="white"/>
<path d="M97.1165 37.6923H89.3499C89.3417 30.6971 86.4752 23.9907 81.3791 19.0444C76.2831 14.098 69.3738 11.3157 62.1669 11.3077V3.76923C71.433 3.77921 80.3166 7.35644 86.8687 13.7161C93.4208 20.0757 97.1062 28.6984 97.1165 37.6923V37.6923ZM89.3499 98H88.6898C12.3831 93.7408 1.54875 31.2469 0.034268 12.1746C-0.202433 9.18467 0.794163 6.2259 2.80485 3.94912C4.81553 1.67233 7.67563 0.264014 10.756 0.0339268C11.0641 0.0113115 11.3735 3.534e-06 11.6841 3.534e-06H32.1491C33.7046 -0.00145804 35.2247 0.450463 36.5125 1.29723C37.8003 2.14399 38.7965 3.34659 39.372 4.74924L45.2746 18.8462C45.8429 20.2164 45.984 21.7186 45.6802 23.166C45.3764 24.6135 44.6412 25.9424 43.5659 26.9877L35.2945 35.0915C36.5813 42.2204 40.0958 48.7926 45.3613 53.917C50.6269 59.0414 57.3887 62.4699 64.7299 63.7377L73.1566 55.6339C74.2498 54.6017 75.6318 53.9047 77.1303 53.6299C78.6289 53.3551 80.1776 53.5146 81.5834 54.0885L96.2234 59.78C97.6467 60.3563 98.861 61.3307 99.7116 62.5793C100.562 63.8279 101.011 65.2939 101 66.7908V86.6923C101 89.6913 99.7724 92.5675 97.5876 94.6881C95.4029 96.8087 92.4397 98 89.3499 98ZM11.6841 7.53847C11.1742 7.53698 10.6689 7.633 10.1972 7.82105C9.72545 8.0091 9.2965 8.28549 8.93482 8.63445C8.57314 8.9834 8.28582 9.39809 8.08925 9.85482C7.89268 10.3116 7.79073 10.8014 7.7892 11.2964C7.7892 11.4019 7.79308 11.5062 7.80085 11.6092C9.58716 33.9231 21.0429 86.6923 89.1169 90.4615C90.1447 90.5213 91.1549 90.1825 91.9254 89.5194C92.6958 88.8564 93.1635 87.9236 93.2255 86.926L93.2332 86.6923V66.7908L78.5932 61.0992L67.4482 71.8415L65.5842 71.6154C31.7996 67.5069 27.2173 34.7146 27.2173 34.3754L26.9843 32.5662L38.0128 21.7485L32.1879 7.53847H11.6841Z" fill="white"/>
</svg>
